<svg width="32" height="32" viewBox="0 0 32 32" fill="none" xmlns="http://www.w3.org/2000/svg">
<path d="M1.0009 23C0.726901 23 0.454901 22.889 0.256901 22.669C-0.113099 22.259 -0.0790992 21.626 0.330901 21.257L9.1889 13.285C10.1109 12.456 11.2989 12 12.5379 12H17.3429C18.1449 12 18.8999 11.688 19.4669 11.12L29.2939 1.293C29.6849 0.902 30.3169 0.902 30.7079 1.293C31.0989 1.684 31.0989 2.316 30.7079 2.707L20.8809 12.534C19.9359 13.479 18.6789 14 17.3429 14H12.5379C11.7949 14 11.0809 14.274 10.5279 14.771L1.6699 22.743C1.4789 22.915 1.2399 23 1.0009 23ZM6.0009 32C5.4489 32 5.0009 31.553 5.0009 31V22.5C5.0009 21.947 5.4489 21.5 6.0009 21.5C6.5529 21.5 7.0009 21.947 7.0009 22.5V31C7.0009 31.553 6.5529 32 6.0009 32ZM1.0009 32C0.448901 32 0.000900752 31.553 0.000900752 31V27C0.000900752 26.447 0.448901 26 1.0009 26C1.5529 26 2.0009 26.447 2.0009 27V31C2.0009 31.553 1.5529 32 1.0009 32ZM11.0009 32C10.4489 32 10.0009 31.553 10.0009 31V18C10.0009 17.447 10.4489 17 11.0009 17C11.5529 17 12.0009 17.447 12.0009 18V31C12.0009 31.553 11.5529 32 11.0009 32ZM16.0009 32C15.4489 32 15.0009 31.553 15.0009 31V18C15.0009 17.447 15.4489 17 16.0009 17C16.5529 17 17.0009 17.447 17.0009 18V31C17.0009 31.553 16.5529 32 16.0009 32ZM21.0009 32C20.4479 32 20.0009 31.553 20.0009 31V17C20.0009 16.448 20.4479 16 21.0009 16C21.5539 16 22.0009 16.448 22.0009 17V31C22.0009 31.553 21.5539 32 21.0009 32ZM26.0009 32C25.4479 32 25.0009 31.553 25.0009 31V12C25.0009 11.448 25.4479 11 26.0009 11C26.5539 11 27.0009 11.448 27.0009 12V31C27.0009 31.553 26.5539 32 26.0009 32ZM31.0009 32C30.4479 32 30.0009 31.553 30.0009 31V12C30.0009 11.448 30.4479 11 31.0009 11C31.5539 11 32.0009 11.448 32.0009 12V31C32.0009 31.553 31.5539 32 31.0009 32ZM31.0009 9C30.4479 9 30.0009 8.552 30.0009 8V2H24.0009C23.4479 2 23.0009 1.552 23.0009 1C23.0009 0.448 23.4479 0 24.0009 0H30.5019C31.3279 0 32.0009 0.672 32.0009 1.499V8C32.0009 8.552 31.5539 9 31.0009 9Z" fill="white"/>
</svg>
