<svg width="32" height="32" viewBox="0 0 32 32" fill="none" xmlns="http://www.w3.org/2000/svg">
<path d="M12.8002 29.3334H12.2098C12.8002 29.3334 13.3496 29.3403 14.4002 29.3334H18.1335C19.189 29.3334 20.2668 29.3334 19.2002 29.3334H19.7335C20.2668 29.3334 20.5792 29.3127 21.4709 29.3334H24.0363C26.5937 29.3334 28.6668 29.8667 28.6668 27.3349V13.1171C28.6532 12.1211 28.1808 11.1858 27.3841 10.5774L18.6105 3.58042C17.0734 2.36211 14.8884 2.36211 13.3514 3.58042L4.6162 10.5901C3.81651 11.1961 3.34335 12.1329 3.3335 13.1298V27.3349C3.3335 29.8667 5.40666 29.3334 7.96404 29.3334H10.5294C11.4433 29.3334 11.7335 29.3334 12.2668 29.3334" stroke="white" stroke-width="2" stroke-linecap="round" stroke-linejoin="round"/>
<path d="M19.8931 18.0686C21.1448 18.0686 22.1602 17.0539 22.1602 15.8022C22.1602 14.5505 21.1448 13.5358 19.8931 13.5358" stroke="white" stroke-width="1.5" stroke-linecap="round" stroke-linejoin="round"/>
<path d="M20.9355 20.5316C21.3093 20.5573 21.681 20.6103 22.0469 20.6927C22.5553 20.7922 23.1669 21.0006 23.3845 21.4567C23.5235 21.7489 23.5235 22.089 23.3845 22.3819C23.1676 22.8381 22.5553 23.0457 22.0469 23.1503" stroke="white" stroke-width="1.5" stroke-linecap="round" stroke-linejoin="round"/>
<path d="M11.062 18.0686C9.81033 18.0686 8.79492 17.0539 8.79492 15.8022C8.79492 14.5505 9.81033 13.5358 11.062 13.5358" stroke="white" stroke-width="1.5" stroke-linecap="round" stroke-linejoin="round"/>
<path d="M10.0198 20.5316C9.64601 20.5573 9.27436 20.6103 8.90845 20.6927C8.40003 20.7922 7.7885 21.0006 7.57152 21.4567C7.43189 21.7489 7.43189 22.089 7.57152 22.3819C7.78778 22.8381 8.40003 23.0457 8.90845 23.1503" stroke="white" stroke-width="1.5" stroke-linecap="round" stroke-linejoin="round"/>
<path fill-rule="evenodd" clip-rule="evenodd" d="M15.4737 21.0196C18.0101 21.0196 20.177 21.4034 20.177 22.9394C20.177 24.4747 18.0244 24.8728 15.4737 24.8728C12.9367 24.8728 10.7705 24.489 10.7705 22.953C10.7705 21.417 12.923 21.0196 15.4737 21.0196Z" stroke="white" stroke-width="1.5" stroke-linecap="round" stroke-linejoin="round"/>
<path fill-rule="evenodd" clip-rule="evenodd" d="M15.4739 18.8287C13.8012 18.8287 12.46 17.4875 12.46 15.814C12.46 14.1412 13.8012 12.8 15.4739 12.8C17.1467 12.8 18.4879 14.1412 18.4879 15.814C18.4879 17.4875 17.1467 18.8287 15.4739 18.8287Z" stroke="white" stroke-width="1.5" stroke-linecap="round" stroke-linejoin="round"/>
</svg>
