<svg width="1440" height="4523" viewBox="0 0 1440 4523" fill="none" xmlns="http://www.w3.org/2000/svg">
<g style="mix-blend-mode:overlay" opacity="0.24" filter="url(#filter0_b)">
<path d="M1439.2 472.255C1454.57 592.648 1456.34 905.379 1340.51 1193.16C1195.71 1552.88 1045.73 2080.58 1074.72 2367.63C1103.7 2654.69 1130.34 2979.91 1100.33 3083.56M1458.15 499.551C1473.52 619.943 1475.3 932.674 1359.46 1220.45C1214.67 1580.18 1064.69 2107.87 1093.67 2394.93C1122.66 2681.98 1149.3 3007.21 1119.29 3110.86M1477.11 526.846C1492.47 647.239 1494.25 959.97 1378.42 1247.75C1233.62 1607.47 1083.64 2135.17 1112.63 2422.22C1141.61 2709.28 1168.25 3034.5 1138.24 3138.15M1496.06 554.141C1511.43 674.534 1513.21 987.265 1397.37 1275.04C1252.58 1634.77 1102.6 2162.46 1131.58 2449.52C1160.57 2736.57 1187.21 3061.8 1157.19 3165.45M1515.02 581.436C1530.38 701.829 1532.16 1014.56 1416.33 1302.34C1271.53 1662.06 1121.55 2189.76 1150.54 2476.81C1179.52 2763.87 1206.16 3089.09 1176.15 3192.74M1533.97 608.731C1549.34 729.124 1551.12 1041.85 1435.28 1329.63C1290.49 1689.36 1140.51 2217.05 1169.49 2504.11C1198.48 2791.16 1225.11 3116.39 1195.1 3220.04M1552.92 636.026C1568.29 756.419 1570.07 1069.15 1454.24 1356.93C1309.44 1716.66 1159.46 2244.35 1188.45 2531.4C1217.43 2818.46 1244.07 3143.68 1214.06 3247.33M1571.88 663.321C1587.25 783.714 1589.03 1096.45 1473.19 1384.23C1328.4 1743.95 1178.42 2271.64 1207.4 2558.7C1236.38 2845.76 1263.02 3170.98 1233.01 3274.63M1590.83 690.617C1606.2 811.009 1607.98 1123.74 1492.15 1411.52C1347.35 1771.25 1197.37 2298.94 1226.35 2585.99C1255.34 2873.05 1281.98 3198.27 1251.97 3301.92M1609.79 717.912C1625.16 838.305 1626.94 1151.04 1511.1 1438.82C1366.3 1798.54 1216.32 2326.23 1245.31 2613.29C1274.29 2900.35 1300.93 3225.57 1270.92 3329.22M1628.74 745.207C1644.11 865.6 1645.89 1178.33 1530.05 1466.11C1385.26 1825.84 1235.28 2353.53 1264.26 2640.58C1293.25 2927.64 1319.89 3252.86 1289.88 3356.51M1647.7 772.502C1663.07 892.895 1664.85 1205.63 1549.01 1493.41C1404.21 1853.13 1254.23 2380.82 1283.22 2667.88C1312.2 2954.94 1338.84 3280.16 1308.83 3383.81M1666.65 799.797C1682.02 920.19 1683.8 1232.92 1567.96 1520.7C1423.17 1880.43 1273.19 2408.12 1302.17 2695.17C1331.16 2982.23 1357.8 3307.45 1327.79 3411.1M1685.61 827.092C1700.98 947.485 1702.76 1260.22 1586.92 1548C1442.12 1907.72 1292.14 2435.41 1321.13 2722.47C1350.11 3009.53 1376.75 3334.75 1346.74 3438.4M1704.56 854.387C1719.93 974.78 1721.71 1287.51 1605.87 1575.29C1461.08 1935.02 1311.1 2462.71 1340.08 2749.77C1369.07 3036.82 1395.71 3362.04 1365.7 3465.69M1723.52 881.682C1738.89 1002.08 1740.66 1314.81 1624.83 1602.59C1480.03 1962.31 1330.05 2490 1359.04 2777.06C1388.02 3064.12 1414.66 3389.34 1384.65 3492.99M1742.47 908.978C1757.84 1029.37 1759.62 1342.1 1643.78 1629.88C1498.99 1989.61 1349.01 2517.3 1377.99 2804.36C1406.98 3091.41 1433.62 3416.63 1403.61 3520.28M1761.43 936.273C1776.79 1056.67 1778.57 1369.4 1662.74 1657.18C1517.94 2016.9 1367.96 2544.59 1396.95 2831.65C1425.93 3118.71 1452.57 3443.93 1422.56 3547.58M1780.38 963.568C1795.75 1083.96 1797.53 1396.69 1681.69 1684.47C1536.9 2044.2 1386.92 2571.89 1415.9 2858.95C1444.89 3146 1471.53 3471.22 1441.51 3574.87M1797.77 942.588C1813.14 1062.98 1814.92 1375.71 1699.08 1663.49C1554.29 2023.22 1404.31 2550.91 1433.29 2837.97C1462.28 3125.02 1488.92 3450.24 1458.9 3553.89M1815.16 921.608C1830.53 1042 1832.31 1354.73 1716.47 1642.51C1571.68 2002.24 1421.7 2529.93 1450.68 2816.99C1479.67 3104.04 1506.31 3429.26 1476.29 3532.91M1832.55 900.628C1847.92 1021.02 1849.7 1333.75 1733.86 1621.53C1589.07 1981.26 1439.09 2508.95 1468.07 2796.01C1497.06 3083.06 1523.7 3408.28 1493.69 3511.93M1849.94 879.648C1865.31 1000.04 1867.09 1312.77 1751.25 1600.55C1606.46 1960.28 1456.48 2487.97 1485.46 2775.03C1514.45 3062.08 1541.09 3387.3 1511.08 3490.95M1867.33 858.668C1882.7 979.061 1884.48 1291.79 1768.64 1579.57C1623.85 1939.3 1473.87 2466.99 1502.85 2754.05C1531.84 3041.1 1558.48 3366.32 1528.47 3469.97M1884.72 837.688C1900.09 958.081 1901.87 1270.81 1786.03 1558.59C1641.24 1918.32 1491.26 2446.01 1520.24 2733.07C1549.23 3020.12 1575.87 3345.34 1545.86 3448.99M1902.11 816.708C1917.48 937.101 1919.26 1249.83 1803.42 1537.61C1658.63 1897.34 1508.65 2425.03 1537.63 2712.09C1566.62 2999.14 1593.26 3324.36 1563.25 3428.01M1919.5 795.728C1934.87 916.121 1936.65 1228.85 1820.81 1516.63C1676.02 1876.36 1526.04 2404.05 1555.02 2691.11C1584.01 2978.16 1610.65 3303.38 1580.64 3407.03M1936.89 774.748C1952.26 895.141 1954.04 1207.87 1838.2 1495.65C1693.41 1855.38 1543.43 2383.07 1572.41 2670.13C1601.4 2957.18 1628.04 3282.4 1598.03 3386.05M1954.28 753.768C1969.65 874.161 1971.43 1186.89 1855.59 1474.67C1710.8 1834.4 1560.82 2362.09 1589.8 2649.15C1618.79 2936.2 1645.43 3261.42 1615.42 3365.07M1971.67 732.788C1987.04 853.181 1988.82 1165.91 1872.98 1453.69C1728.19 1813.42 1578.21 2341.11 1607.19 2628.17C1636.18 2915.22 1662.82 3240.44 1632.81 3344.09M1989.06 711.808C2004.43 832.201 2006.21 1144.93 1890.37 1432.71C1745.58 1792.44 1595.6 2320.13 1624.58 2607.19C1653.57 2894.24 1680.21 3219.46 1650.2 3323.11M2006.45 690.828C2021.82 811.22 2023.6 1123.95 1907.77 1411.73C1762.97 1771.46 1612.99 2299.15 1641.97 2586.21C1670.96 2873.26 1697.6 3198.48 1667.59 3302.13M2023.84 669.848C2039.21 790.24 2040.99 1102.97 1925.16 1390.75C1780.36 1750.48 1630.38 2278.17 1659.36 2565.23C1688.35 2852.28 1714.99 3177.5 1684.98 3281.15M2041.23 648.867C2056.6 769.26 2058.38 1081.99 1942.55 1369.77C1797.75 1729.5 1647.77 2257.19 1676.75 2544.25C1705.74 2831.3 1732.38 3156.52 1702.37 3260.17M2058.62 627.887C2073.99 748.28 2075.77 1061.01 1959.94 1348.79C1815.14 1708.52 1665.16 2236.21 1694.15 2523.27C1723.13 2810.32 1749.77 3135.54 1719.76 3239.19M2076.01 606.907C2091.38 727.3 2093.16 1040.03 1977.33 1327.81C1832.53 1687.54 1682.55 2215.23 1711.54 2502.29C1740.52 2789.34 1767.16 3114.56 1737.15 3218.21M2093.4 585.927C2108.77 706.32 2110.55 1019.05 1994.72 1306.83C1849.92 1666.56 1699.94 2194.25 1728.93 2481.31C1757.91 2768.36 1784.55 3093.58 1754.54 3197.23M2110.79 564.947C2126.16 685.34 2127.94 998.071 2012.11 1285.85C1867.31 1645.58 1717.33 2173.27 1746.32 2460.33C1775.3 2747.38 1801.94 3072.6 1771.93 3176.25M2128.19 543.967C2143.55 664.36 2145.33 977.091 2029.5 1264.87C1884.7 1624.6 1734.72 2152.29 1763.71 2439.35C1792.69 2726.4 1819.33 3051.62 1789.32 3155.27" stroke="white" stroke-width="4"/>
</g>
<defs>
<filter id="filter0_b" x="813.093" y="216.002" width="1580.52" height="3615.43" filterUnits="userSpaceOnUse" color-interpolation-filters="sRGB">
<feFlood flood-opacity="0" result="BackgroundImageFix"/>
<feGaussianBlur in="BackgroundImage" stdDeviation="128"/>
<feComposite in2="SourceAlpha" operator="in" result="effect1_backgroundBlur"/>
<feBlend mode="normal" in="SourceGraphic" in2="effect1_backgroundBlur" result="shape"/>
</filter>
</defs>
</svg>
