<svg width="1436" height="3044" viewBox="0 0 1436 3044" fill="none" xmlns="http://www.w3.org/2000/svg">
<g style="mix-blend-mode:overlay" opacity="0.24" filter="url(#filter0_b)">
<path d="M0 222.757C64.0361 325.859 195.685 609.535 209.993 919.424C227.878 1306.78 310.888 1849.06 456.604 2098.07C602.32 2347.09 761.772 2631.79 777.576 2738.53M28.5876 239.699C92.6236 342.802 224.273 626.478 238.581 936.366C256.465 1323.73 339.476 1866 485.192 2115.02C630.908 2364.03 790.36 2648.73 806.163 2755.48M57.1752 256.642C121.211 359.744 252.86 643.421 267.168 953.309C285.053 1340.67 368.063 1882.95 513.779 2131.96C659.495 2380.97 818.947 2665.67 834.751 2772.42M85.7628 273.585C149.799 376.687 281.448 660.363 295.756 970.251C313.641 1357.61 396.651 1899.89 542.367 2148.9C688.083 2397.92 847.535 2682.62 863.338 2789.36M114.35 290.527C178.386 393.629 310.036 677.306 324.343 987.194C342.228 1374.55 425.238 1916.83 570.954 2165.84C716.67 2414.86 876.122 2699.56 891.926 2806.3M142.938 307.47C206.974 410.572 338.623 694.249 352.931 1004.14C370.816 1391.5 453.826 1933.77 599.542 2182.79C745.258 2431.8 904.71 2716.5 920.513 2823.25M171.526 324.413C235.562 427.515 367.211 711.191 381.519 1021.08C399.403 1408.44 482.414 1950.72 628.13 2199.73C773.846 2448.74 933.298 2733.44 949.101 2840.19M200.113 341.355C264.149 444.457 395.798 728.134 410.106 1038.02C427.991 1425.38 511.001 1967.66 656.717 2216.67C802.433 2465.69 961.885 2750.39 977.689 2857.13M228.701 358.298C292.737 461.4 424.386 745.076 438.694 1054.96C456.579 1442.32 539.589 1984.6 685.305 2233.62C831.021 2482.63 990.473 2767.33 1006.28 2874.07M257.288 375.241C321.324 478.343 452.973 762.019 467.281 1071.91C485.166 1459.27 568.176 2001.54 713.892 2250.56C859.608 2499.57 1019.06 2784.27 1034.86 2891.02M285.876 392.183C349.912 495.285 481.561 778.962 495.869 1088.85C513.754 1476.21 596.764 2018.49 742.48 2267.5C888.196 2516.51 1047.65 2801.21 1063.45 2907.96M314.463 409.126C378.5 512.228 510.149 795.904 524.457 1105.79C542.341 1493.15 625.351 2035.43 771.068 2284.44C916.784 2533.46 1076.24 2818.16 1092.04 2924.9M343.051 426.068C407.087 529.171 538.736 812.847 553.044 1122.74C570.929 1510.1 653.939 2052.37 799.655 2301.39C945.371 2550.4 1104.82 2835.1 1120.63 2941.84M371.639 443.011C435.675 546.113 567.324 829.79 581.632 1139.68C599.517 1527.04 682.527 2069.31 828.243 2318.33C973.959 2567.34 1133.41 2852.04 1149.21 2958.79M400.226 459.954C464.262 563.056 595.911 846.732 610.219 1156.62C628.104 1543.98 711.114 2086.26 856.83 2335.27C1002.55 2584.29 1162 2868.99 1177.8 2975.73M428.814 476.896C492.85 579.999 624.499 863.675 638.807 1173.56C656.692 1560.92 739.702 2103.2 885.418 2352.21C1031.13 2601.23 1190.59 2885.93 1206.39 2992.67M457.401 493.839C521.438 596.941 653.087 880.618 667.394 1190.51C685.279 1577.87 768.289 2120.14 914.005 2369.16C1059.72 2618.17 1219.17 2902.87 1234.98 3009.61M485.989 510.782C550.025 613.884 681.674 897.56 695.982 1207.45C713.867 1594.81 796.877 2137.08 942.593 2386.1C1088.31 2635.11 1247.76 2919.81 1263.56 3026.56M514.577 527.724C578.613 630.826 710.262 914.503 724.57 1224.39C742.454 1611.75 825.465 2154.03 971.181 2403.04C1116.9 2652.06 1276.35 2936.76 1292.15 3043.5M521.669 501.413C585.705 604.515 717.354 888.192 731.662 1198.08C749.547 1585.44 832.557 2127.72 978.273 2376.73C1123.99 2625.74 1283.44 2910.45 1299.24 3017.19M528.761 475.102C592.797 578.204 724.447 861.88 738.754 1171.77C756.639 1559.13 839.649 2101.41 985.365 2350.42C1131.08 2599.43 1290.53 2884.13 1306.34 2990.88M535.854 448.791C599.89 551.893 731.539 835.569 745.847 1145.46C763.732 1532.82 846.742 2075.09 992.458 2324.11C1138.17 2573.12 1297.63 2857.82 1313.43 2964.57M542.946 422.479C606.982 525.582 738.631 809.258 752.939 1119.15C770.824 1506.51 853.834 2048.78 999.55 2297.8C1145.27 2546.81 1304.72 2831.51 1320.52 2938.26M550.039 396.168C614.075 499.27 745.724 782.947 760.032 1092.84C777.916 1480.2 860.927 2022.47 1006.64 2271.49C1152.36 2520.5 1311.81 2805.2 1327.61 2911.94M557.131 369.857C621.167 472.959 752.816 756.636 767.124 1066.52C785.009 1453.88 868.019 1996.16 1013.74 2245.17C1159.45 2494.19 1318.9 2778.89 1334.71 2885.63M564.223 343.546C628.259 446.648 759.909 730.324 774.216 1040.21C792.101 1427.57 875.111 1969.85 1020.83 2218.86C1166.54 2467.88 1326 2752.58 1341.8 2859.32M571.316 317.235C635.352 420.337 767.001 704.013 781.309 1013.9C799.194 1401.26 882.204 1943.54 1027.92 2192.55C1173.64 2441.57 1333.09 2726.27 1348.89 2833.01M578.408 290.923C642.444 394.026 774.093 677.702 788.401 987.59C806.286 1374.95 889.296 1917.23 1035.01 2166.24C1180.73 2415.25 1340.18 2699.96 1355.98 2806.7M585.501 264.612C649.537 367.714 781.186 651.391 795.494 961.279C813.378 1348.64 896.389 1890.92 1042.1 2139.93C1187.82 2388.94 1347.27 2673.64 1363.08 2780.39M592.593 238.301C656.629 341.403 788.278 625.08 802.586 934.968C820.471 1322.33 903.481 1864.6 1049.2 2113.62C1194.91 2362.63 1354.37 2647.33 1370.17 2754.08M599.685 211.99C663.721 315.092 795.371 598.768 809.678 908.657C827.563 1296.02 910.573 1838.29 1056.29 2087.31C1202.01 2336.32 1361.46 2621.02 1377.26 2727.77M606.778 185.679C670.814 288.781 802.463 572.457 816.771 882.345C834.656 1269.71 917.666 1811.98 1063.38 2061C1209.1 2310.01 1368.55 2594.71 1384.35 2701.45M613.87 159.367C677.906 262.469 809.555 546.146 823.863 856.034C841.748 1243.39 924.758 1785.67 1070.47 2034.68C1216.19 2283.7 1375.64 2568.4 1391.45 2675.14M620.963 133.056C684.999 236.158 816.648 519.835 830.956 829.723C848.84 1217.08 931.851 1759.36 1077.57 2008.37C1223.28 2257.39 1382.73 2542.09 1398.54 2648.83M628.055 106.745C692.091 209.847 823.74 493.523 838.048 803.412C855.933 1190.77 938.943 1733.05 1084.66 1982.06C1230.37 2231.08 1389.83 2515.78 1405.63 2622.52M635.147 80.4336C699.183 183.536 830.832 467.212 845.14 777.1C863.025 1164.46 946.035 1706.74 1091.75 1955.75C1237.47 2204.77 1396.92 2489.47 1412.72 2596.21M642.24 54.1224C706.276 157.225 837.925 440.901 852.233 750.789C870.118 1138.15 953.128 1680.43 1098.84 1929.44C1244.56 2178.45 1404.01 2463.15 1419.82 2569.9M649.332 27.8112C713.368 130.913 845.017 414.59 859.325 724.478C877.21 1111.84 960.22 1654.11 1105.94 1903.13C1251.65 2152.14 1411.1 2436.84 1426.91 2543.59M656.425 1.5C720.461 104.602 852.11 388.279 866.418 698.167C884.302 1085.53 967.313 1627.8 1113.03 1876.82C1258.74 2125.83 1418.2 2410.53 1434 2517.28" stroke="white" stroke-width="4"/>
</g>
<defs>
<filter id="filter0_b" x="-257.699" y="-255.555" width="1949.68" height="3555.35" filterUnits="userSpaceOnUse" color-interpolation-filters="sRGB">
<feFlood flood-opacity="0" result="BackgroundImageFix"/>
<feGaussianBlur in="BackgroundImage" stdDeviation="128"/>
<feComposite in2="SourceAlpha" operator="in" result="effect1_backgroundBlur"/>
<feBlend mode="normal" in="SourceGraphic" in2="effect1_backgroundBlur" result="shape"/>
</filter>
</defs>
</svg>
