<svg width="1438" height="3045" viewBox="0 0 1438 3045" fill="none" xmlns="http://www.w3.org/2000/svg">
<g style="mix-blend-mode:overlay" opacity="0.24" filter="url(#filter0_b)">
<path d="M2 223.257C66.0361 326.359 197.685 610.035 211.993 919.924C229.878 1307.28 312.888 1849.56 458.604 2098.57C604.32 2347.59 763.772 2632.29 779.576 2739.03M30.5876 240.199C94.6236 343.302 226.273 626.978 240.581 936.866C258.465 1324.23 341.476 1866.5 487.192 2115.52C632.908 2364.53 792.36 2649.23 808.163 2755.98M59.1752 257.142C123.211 360.244 254.86 643.921 269.168 953.809C287.053 1341.17 370.063 1883.45 515.779 2132.46C661.495 2381.47 820.947 2666.17 836.751 2772.92M87.7628 274.085C151.799 377.187 283.448 660.863 297.756 970.751C315.641 1358.11 398.651 1900.39 544.367 2149.4C690.083 2398.42 849.535 2683.12 865.338 2789.86M116.35 291.027C180.386 394.129 312.036 677.806 326.343 987.694C344.228 1375.05 427.238 1917.33 572.954 2166.34C718.67 2415.36 878.122 2700.06 893.926 2806.8M144.938 307.97C208.974 411.072 340.623 694.749 354.931 1004.64C372.816 1392 455.826 1934.27 601.542 2183.29C747.258 2432.3 906.71 2717 922.513 2823.75M173.526 324.913C237.562 428.015 369.211 711.691 383.519 1021.58C401.403 1408.94 484.414 1951.22 630.13 2200.23C775.846 2449.24 935.298 2733.94 951.101 2840.69M202.113 341.855C266.149 444.957 397.798 728.634 412.106 1038.52C429.991 1425.88 513.001 1968.16 658.717 2217.17C804.433 2466.19 963.885 2750.89 979.689 2857.63M230.701 358.798C294.737 461.9 426.386 745.576 440.694 1055.46C458.579 1442.82 541.589 1985.1 687.305 2234.12C833.021 2483.13 992.473 2767.83 1008.28 2874.57M259.288 375.741C323.324 478.843 454.973 762.519 469.281 1072.41C487.166 1459.77 570.176 2002.04 715.892 2251.06C861.608 2500.07 1021.06 2784.77 1036.86 2891.52M287.876 392.683C351.912 495.785 483.561 779.462 497.869 1089.35C515.754 1476.71 598.764 2018.99 744.48 2268C890.196 2517.01 1049.65 2801.71 1065.45 2908.46M316.463 409.626C380.5 512.728 512.149 796.404 526.457 1106.29C544.341 1493.65 627.351 2035.93 773.068 2284.94C918.784 2533.96 1078.24 2818.66 1094.04 2925.4M345.051 426.568C409.087 529.671 540.736 813.347 555.044 1123.24C572.929 1510.6 655.939 2052.87 801.655 2301.89C947.371 2550.9 1106.82 2835.6 1122.63 2942.34M373.639 443.511C437.675 546.613 569.324 830.29 583.632 1140.18C601.517 1527.54 684.527 2069.81 830.243 2318.83C975.959 2567.84 1135.41 2852.54 1151.21 2959.29M402.226 460.454C466.262 563.556 597.911 847.232 612.219 1157.12C630.104 1544.48 713.114 2086.76 858.83 2335.77C1004.55 2584.79 1164 2869.49 1179.8 2976.23M430.814 477.396C494.85 580.499 626.499 864.175 640.807 1174.06C658.692 1561.42 741.702 2103.7 887.418 2352.71C1033.13 2601.73 1192.59 2886.43 1208.39 2993.17M459.401 494.339C523.438 597.441 655.087 881.118 669.394 1191.01C687.279 1578.37 770.289 2120.64 916.005 2369.66C1061.72 2618.67 1221.17 2903.37 1236.98 3010.11M487.989 511.282C552.025 614.384 683.674 898.06 697.982 1207.95C715.867 1595.31 798.877 2137.58 944.593 2386.6C1090.31 2635.61 1249.76 2920.31 1265.56 3027.06M516.577 528.224C580.613 631.326 712.262 915.003 726.57 1224.89C744.454 1612.25 827.465 2154.53 973.181 2403.54C1118.9 2652.56 1278.35 2937.26 1294.15 3044M523.669 501.913C587.705 605.015 719.354 888.692 733.662 1198.58C751.547 1585.94 834.557 2128.22 980.273 2377.23C1125.99 2626.24 1285.44 2910.95 1301.24 3017.69M530.761 475.602C594.797 578.704 726.447 862.38 740.754 1172.27C758.639 1559.63 841.649 2101.91 987.365 2350.92C1133.08 2599.93 1292.53 2884.63 1308.34 2991.38M537.854 449.291C601.89 552.393 733.539 836.069 747.847 1145.96C765.732 1533.32 848.742 2075.59 994.458 2324.61C1140.17 2573.62 1299.63 2858.32 1315.43 2965.07M544.946 422.979C608.982 526.082 740.631 809.758 754.939 1119.65C772.824 1507.01 855.834 2049.28 1001.55 2298.3C1147.27 2547.31 1306.72 2832.01 1322.52 2938.76M552.039 396.668C616.075 499.77 747.724 783.447 762.032 1093.34C779.916 1480.7 862.927 2022.97 1008.64 2271.99C1154.36 2521 1313.81 2805.7 1329.61 2912.44M559.131 370.357C623.167 473.459 754.816 757.136 769.124 1067.02C787.009 1454.38 870.019 1996.66 1015.74 2245.67C1161.45 2494.69 1320.9 2779.39 1336.71 2886.13M566.223 344.046C630.259 447.148 761.909 730.824 776.216 1040.71C794.101 1428.07 877.111 1970.35 1022.83 2219.36C1168.54 2468.38 1328 2753.08 1343.8 2859.82M573.316 317.735C637.352 420.837 769.001 704.513 783.309 1014.4C801.194 1401.76 884.204 1944.04 1029.92 2193.05C1175.64 2442.07 1335.09 2726.77 1350.89 2833.51M580.408 291.423C644.444 394.526 776.093 678.202 790.401 988.09C808.286 1375.45 891.296 1917.73 1037.01 2166.74C1182.73 2415.75 1342.18 2700.46 1357.98 2807.2M587.501 265.112C651.537 368.214 783.186 651.891 797.494 961.779C815.378 1349.14 898.389 1891.42 1044.1 2140.43C1189.82 2389.44 1349.27 2674.14 1365.08 2780.89M594.593 238.801C658.629 341.903 790.278 625.58 804.586 935.468C822.471 1322.83 905.481 1865.1 1051.2 2114.12C1196.91 2363.13 1356.37 2647.83 1372.17 2754.58M601.685 212.49C665.721 315.592 797.371 599.268 811.678 909.157C829.563 1296.52 912.573 1838.79 1058.29 2087.81C1204.01 2336.82 1363.46 2621.52 1379.26 2728.27M608.778 186.179C672.814 289.281 804.463 572.957 818.771 882.845C836.656 1270.21 919.666 1812.48 1065.38 2061.5C1211.1 2310.51 1370.55 2595.21 1386.35 2701.95M615.87 159.867C679.906 262.969 811.555 546.646 825.863 856.534C843.748 1243.89 926.758 1786.17 1072.47 2035.18C1218.19 2284.2 1377.64 2568.9 1393.45 2675.64M622.963 133.556C686.999 236.658 818.648 520.335 832.956 830.223C850.84 1217.58 933.851 1759.86 1079.57 2008.87C1225.28 2257.89 1384.73 2542.59 1400.54 2649.33M630.055 107.245C694.091 210.347 825.74 494.023 840.048 803.912C857.933 1191.27 940.943 1733.55 1086.66 1982.56C1232.37 2231.58 1391.83 2516.28 1407.63 2623.02M637.147 80.9336C701.183 184.036 832.832 467.712 847.14 777.6C865.025 1164.96 948.035 1707.24 1093.75 1956.25C1239.47 2205.27 1398.92 2489.97 1414.72 2596.71M644.24 54.6224C708.276 157.725 839.925 441.401 854.233 751.289C872.118 1138.65 955.128 1680.93 1100.84 1929.94C1246.56 2178.95 1406.01 2463.65 1421.82 2570.4M651.332 28.3112C715.368 131.413 847.017 415.09 861.325 724.978C879.21 1112.34 962.22 1654.61 1107.94 1903.63C1253.65 2152.64 1413.1 2437.34 1428.91 2544.09M658.425 2C722.461 105.102 854.11 388.779 868.418 698.667C886.302 1086.03 969.313 1628.3 1115.03 1877.32C1260.74 2126.33 1420.2 2411.03 1436 2517.78" stroke="white" stroke-width="4"/>
</g>
<defs>
<filter id="filter0_b" x="-255.699" y="-255.055" width="1949.68" height="3555.35" filterUnits="userSpaceOnUse" color-interpolation-filters="sRGB">
<feFlood flood-opacity="0" result="BackgroundImageFix"/>
<feGaussianBlur in="BackgroundImage" stdDeviation="128"/>
<feComposite in2="SourceAlpha" operator="in" result="effect1_backgroundBlur"/>
<feBlend mode="normal" in="SourceGraphic" in2="effect1_backgroundBlur" result="shape"/>
</filter>
</defs>
</svg>
