<svg width="32" height="32" viewBox="0 0 32 32" fill="none" xmlns="http://www.w3.org/2000/svg">
<path d="M20 25H12C11.448 25 11 24.553 11 24C11 23.447 11.448 23 12 23H20C20.553 23 21 23.447 21 24C21 24.553 20.553 25 20 25Z" fill="white"/>
<path d="M16 32C13.243 32 11 29.757 11 27C10.988 26.584 10.984 26.186 10.981 25.815C10.96 23.272 10.951 22.22 7.406 15.938C7.383 15.896 7.362 15.853 7.345 15.809C6.525 14.287 6 12.028 6 10C6 4.299 10.299 0 16 0C21.701 0 26 4.299 26 10C26 12.03 25.474 14.291 24.653 15.813C24.636 15.855 24.616 15.897 24.593 15.938C21.048 22.221 21.039 23.272 21.018 25.815C21.015 26.181 21.012 26.576 20.999 27.014C20.992 29.765 18.752 32 16 32ZM9.216 15.077C12.946 21.702 12.957 22.993 12.981 25.799C12.984 26.156 12.987 26.542 13 26.972C13 28.654 14.346 30 16 30C17.654 30 19 28.654 19 27C19 26.99 19 26.98 19 26.972C19.013 26.542 19.016 26.157 19.019 25.799C19.043 22.992 19.054 21.702 22.787 15.072C22.803 15.032 22.822 14.992 22.844 14.954C23.524 13.75 24 11.713 24 10C24 5.439 20.561 2 16 2C11.439 2 8 5.439 8 10C8 11.713 8.476 13.75 9.158 14.954C9.18 14.994 9.2 15.035 9.216 15.077Z" fill="white"/>
<path d="M15.9978 20.93C15.6368 20.93 15.3048 20.736 15.1268 20.422L12.8088 16.317C12.4348 15.658 12.2368 14.905 12.2368 14.14C12.2368 11.857 13.9248 10 15.9998 10C18.0748 10 19.7628 11.857 19.7628 14.139C19.7628 14.905 19.5658 15.658 19.1918 16.317L16.8688 20.422C16.6908 20.735 16.3578 20.93 15.9978 20.93ZM15.9998 12C15.0278 12 14.2368 12.959 14.2368 14.139C14.2368 14.559 14.3438 14.971 14.5478 15.329C14.5478 15.329 14.5488 15.33 14.5488 15.331L15.9988 17.897L17.4508 15.331C17.6548 14.971 17.7628 14.56 17.7628 14.139C17.7628 12.959 16.9718 12 15.9998 12Z" fill="white"/>
<path d="M16 25C15.448 25 15 24.553 15 24L14.998 19.93C14.998 19.378 15.445 18.93 15.998 18.93C16.55 18.93 16.998 19.377 16.998 19.93L17 24C17 24.552 16.553 25 16 25Z" fill="white"/>
<path d="M3 11H1C0.448 11 0 10.552 0 10C0 9.448 0.448 9 1 9H3C3.552 9 4 9.448 4 10C4 10.552 3.552 11 3 11Z" fill="white"/>
<path d="M31 11H29C28.447 11 28 10.552 28 10C28 9.448 28.447 9 29 9H31C31.553 9 32 9.448 32 10C32 10.552 31.553 11 31 11Z" fill="white"/>
<path d="M4.38093 5.16698C4.22993 5.16698 4.07693 5.13298 3.93293 5.06098L2.14593 4.16398C1.65193 3.91598 1.45293 3.31498 1.70093 2.82098C1.94893 2.32698 2.54993 2.12798 3.04293 2.37598L4.83093 3.27298C5.32493 3.52098 5.52393 4.12198 5.27593 4.61498C5.09993 4.96598 4.74693 5.16698 4.38093 5.16698Z" fill="white"/>
<path d="M29.4039 17.73C29.2539 17.73 29.0999 17.696 28.9559 17.624L27.1689 16.726C26.6759 16.478 26.4769 15.877 26.7249 15.384C26.9729 14.891 27.5709 14.691 28.0679 14.939L29.8549 15.836C30.3479 16.084 30.5469 16.685 30.2989 17.178C30.1229 17.528 29.7709 17.73 29.4039 17.73Z" fill="white"/>
<path d="M2.59496 17.73C2.22896 17.73 1.87596 17.528 1.69996 17.178C1.45196 16.684 1.65096 16.083 2.14496 15.836L3.93296 14.939C4.42796 14.691 5.02895 14.891 5.27496 15.384C5.52295 15.878 5.32395 16.479 4.82995 16.726L3.04196 17.624C2.89896 17.696 2.74596 17.73 2.59496 17.73Z" fill="white"/>
<path d="M27.6189 5.16702C27.2529 5.16702 26.8999 4.96502 26.7239 4.61602C26.4759 4.12202 26.6749 3.52102 27.1679 3.27402L28.9549 2.37702C29.4519 2.12902 30.0499 2.32902 30.2979 2.82202C30.5459 3.31602 30.3469 3.91702 29.8539 4.16402L28.0669 5.06102C27.9229 5.13302 27.7699 5.16702 27.6189 5.16702Z" fill="white"/>
</svg>
