<svg width="375" height="627" viewBox="0 0 375 627" fill="none" xmlns="http://www.w3.org/2000/svg">
<g style="mix-blend-mode:lighten" opacity="0.8">
<path d="M161.685 19.3972C170.619 -5.18231 205.381 -5.18234 214.315 19.3972L238.671 86.4012C245.138 104.195 267.035 110.574 282.047 99.0377L346.786 49.2895C368.378 32.6967 398.551 53.5695 390.639 79.6264L375.654 128.978C369.518 149.186 387.111 168.654 407.835 164.589L476.488 151.124C504.865 145.557 522.031 181.425 499.894 200.033L468.59 226.349C450.951 241.176 457.774 269.773 480.206 275.04L527.91 286.241C556.709 293.004 556.709 333.996 527.91 340.759L480.206 351.96C457.774 357.227 450.951 385.824 468.59 400.651L499.894 426.967C522.03 445.575 504.865 481.443 476.488 475.876L407.835 462.411C387.111 458.346 369.518 477.814 375.654 498.022L390.639 547.374C398.551 573.43 368.378 594.303 346.786 577.711L282.047 527.962C267.035 516.426 245.138 522.805 238.671 540.599L214.315 607.603C205.381 632.182 170.619 632.182 161.685 607.603L137.329 540.599C130.861 522.805 108.965 516.426 93.9529 527.962L29.2145 577.711C7.62192 594.303 -22.5506 573.43 -14.6387 547.374L0.346191 498.022C6.48227 477.814 -11.1107 458.346 -31.8353 462.411L-100.488 475.876C-128.865 481.443 -146.031 445.575 -123.894 426.967L-92.5897 400.651C-74.9512 385.824 -81.7737 357.227 -104.206 351.96L-151.91 340.759C-180.709 333.996 -180.709 293.004 -151.91 286.241L-104.206 275.04C-81.7737 269.773 -74.9511 241.176 -92.5897 226.349L-123.894 200.033C-146.03 181.425 -128.866 145.557 -100.488 151.124L-31.8353 164.589C-11.1107 168.654 6.4823 149.186 0.346222 128.978L-14.6387 79.6265C-22.5506 53.5696 7.62189 32.6967 29.2145 49.2895L93.9529 99.0377C108.965 110.574 130.861 104.195 137.329 86.4012L161.685 19.3972Z" fill="url(#paint0_radial)"/>
</g>
<defs>
<radialGradient id="paint0_radial" cx="0" cy="0" r="1" gradientUnits="userSpaceOnUse" gradientTransform="translate(188 313.5) rotate(90) scale(366.5 456)">
<stop stop-color="#60C6F0"/>
<stop offset="0.718069" stop-color="#32213C"/>
<stop offset="1" stop-color="#0F1014"/>
</radialGradient>
</defs>
</svg>
