<svg width="951" height="938" viewBox="0 0 951 938" fill="none" xmlns="http://www.w3.org/2000/svg">
<g style="mix-blend-mode:lighten" opacity="0.8">
<path d="M436.727 30.8861C446.928 -9.33672 504.072 -9.33667 514.273 30.8861L551.398 177.278C558.335 204.632 590.654 216.395 613.552 199.9L736.09 111.621C769.759 87.3656 813.534 124.097 795.493 161.466L729.834 297.473C717.566 322.886 734.762 352.672 762.906 354.754L913.52 365.895C954.903 368.956 964.826 425.231 926.986 442.262L789.265 504.244C763.531 515.826 757.558 549.696 777.779 569.381L885.995 674.729C915.729 703.674 887.157 753.162 847.223 741.885L701.881 700.841C674.723 693.171 648.376 715.279 651.213 743.356L666.395 893.617C670.567 934.903 616.869 954.447 593.527 920.139L508.571 795.274C492.697 771.942 458.303 771.942 442.429 795.274L357.473 920.139C334.131 954.448 280.433 934.903 284.605 893.617L299.787 743.356C302.624 715.279 276.277 693.171 249.119 700.841L103.777 741.885C63.8429 753.162 35.271 703.674 65.0046 674.729L173.221 569.381C193.442 549.696 187.469 515.826 161.735 504.244L24.0144 442.262C-13.826 425.231 -3.90305 368.956 37.48 365.895L188.094 354.754C216.238 352.672 233.434 322.886 221.166 297.473L155.507 161.466C137.466 124.097 181.241 87.3656 214.91 111.621L337.448 199.9C360.346 216.395 392.665 204.632 399.602 177.278L436.727 30.8861Z" fill="url(#paint0_radial)"/>
</g>
<defs>
<radialGradient id="paint0_radial" cx="0" cy="0" r="1" gradientUnits="userSpaceOnUse" gradientTransform="translate(475.5 482.5) rotate(90) scale(604.5)">
<stop stop-color="#60C6F0"/>
<stop offset="0.718069" stop-color="#32213C"/>
<stop offset="1" stop-color="#0F1014"/>
</radialGradient>
</defs>
</svg>
