<svg width="279" height="400" viewBox="0 0 279 400" fill="none" xmlns="http://www.w3.org/2000/svg">
<g style="mix-blend-mode:overlay" opacity="0.24" filter="url(#filter0_b)">
<path d="M173.919 -470.499C181.977 -407.377 93.2455 -252.348 32.5127 -101.465C-43.4033 87.1373 -32.3733 372.74 -17.1767 523.242C-1.98005 673.745 11.9868 844.258 -3.74774 898.602M183.857 -456.188C191.915 -393.066 120.485 -214.792 59.7526 -63.9094C-16.1635 124.693 -22.4355 387.051 -7.23884 537.553C7.95778 688.056 21.9246 858.569 6.19012 912.913M193.794 -441.877C201.852 -378.756 133.594 -143.238 72.8613 7.64445C-3.05476 196.247 -12.4976 401.361 2.69904 551.864C17.8957 702.367 31.8625 872.88 16.128 927.223M203.732 -427.566C211.79 -364.445 144.081 -95.8171 83.3482 55.0651C7.4322 243.668 -2.55965 415.672 12.637 566.175C27.8336 716.677 41.8003 887.191 26.0658 941.534M213.67 -413.256C221.728 -350.134 153.444 -51.818 92.7116 99.0643C16.7955 287.667 7.37823 429.983 22.5748 580.486C37.7715 730.988 51.7383 901.501 36.0038 955.845M223.608 -398.945C231.666 -335.823 165.804 -14.4409 105.071 136.441C29.1552 325.044 17.3161 444.294 32.5127 594.796C47.7093 745.299 61.6761 915.812 45.9415 970.156M233.546 -384.634C241.604 -321.512 165.804 45.0323 105.071 195.915C29.1552 384.517 27.2539 458.604 42.4506 609.107C57.6472 759.61 71.6139 930.123 55.8794 984.467M243.484 -370.323C251.542 -307.202 252.475 -143.238 191.742 7.64446C115.826 196.247 37.1918 472.915 52.3884 623.418C67.5851 773.92 81.5519 944.434 65.8173 998.777M253.422 -356.013C261.48 -292.891 262.412 -128.927 201.68 21.9552C125.764 210.558 47.1297 487.226 62.3263 637.729C77.5229 788.231 91.4897 958.744 75.7552 1013.09M263.36 -341.702C271.418 -278.58 272.35 -114.616 211.617 36.266C135.701 224.869 57.0675 501.537 72.2642 652.039C87.4608 802.542 101.428 973.055 85.693 1027.4M273.297 -327.391C281.355 -264.269 282.288 -100.305 221.555 50.5768C145.639 239.18 67.0054 515.848 82.202 666.35C97.3987 816.853 111.365 987.366 95.6309 1041.71M283.235 -313.08C291.293 -249.959 292.226 -85.9948 231.493 64.8875C155.577 253.49 76.9433 530.158 92.1399 680.661C107.337 831.164 121.303 1001.68 105.569 1056.02M293.173 -298.77C301.231 -235.648 302.164 -71.684 241.431 79.1982C165.515 267.801 86.8811 544.469 102.078 694.972C117.274 845.474 131.241 1015.99 115.507 1070.33M303.111 -284.459C311.169 -221.337 312.102 -57.3732 251.369 93.5091C175.453 282.112 96.819 558.78 112.016 709.282C127.212 859.785 141.179 1030.3 125.445 1084.64M313.049 -270.148C321.107 -207.026 322.04 -43.0624 261.307 107.82C185.391 296.423 106.757 573.091 121.953 723.593C137.15 874.096 151.117 1044.61 135.382 1098.95M322.987 -255.837C331.045 -192.716 331.978 -28.7517 271.245 122.131C195.329 310.733 116.695 587.401 131.891 737.904C147.088 888.407 161.055 1058.92 145.32 1113.26M332.925 -241.526C340.983 -178.405 341.915 -14.4409 281.183 136.441C205.267 325.044 126.633 601.712 141.829 752.215C157.026 902.717 170.993 1073.23 155.258 1127.57M342.862 -227.216C350.92 -164.094 351.853 -0.130186 291.12 150.752C215.204 339.355 136.57 616.023 151.767 766.526C166.964 917.028 180.93 1087.54 165.196 1141.88M352.8 -212.905C360.858 -149.783 361.791 14.1806 301.058 165.063C225.142 353.666 146.508 630.334 161.705 780.836C176.902 931.339 190.868 1101.85 175.134 1156.2M361.918 -223.905C369.976 -160.783 370.909 3.18087 310.176 154.063C234.26 342.666 155.626 619.334 170.823 769.836C186.019 920.339 199.986 1090.85 184.251 1145.2M371.036 -234.905C379.094 -171.783 380.026 -7.81896 319.294 143.063C243.378 331.666 164.744 608.334 179.94 758.837C195.137 909.339 209.104 1079.85 193.369 1134.2M380.153 -245.904C388.211 -182.783 389.144 -18.8187 328.411 132.064C252.495 320.666 173.861 597.334 189.058 747.837C204.255 898.34 218.221 1068.85 202.487 1123.2M389.271 -256.904C397.329 -193.782 398.262 -29.8185 337.529 121.064C261.613 309.667 182.979 586.335 198.176 736.837C213.372 887.34 227.339 1057.85 211.604 1112.2M398.389 -267.904C406.447 -204.782 407.379 -40.8182 346.647 110.064C270.731 298.667 192.097 575.335 207.293 725.837C222.49 876.34 236.457 1046.85 220.722 1101.2M407.506 -278.904C415.564 -215.782 416.497 -51.8179 355.764 99.0643C279.848 287.667 201.214 564.335 216.411 714.838C231.608 865.34 245.574 1035.85 229.84 1090.2M416.624 -289.903C424.682 -226.782 425.615 -62.8178 364.882 88.0645C288.966 276.667 210.332 553.335 225.529 703.838C240.725 854.34 254.692 1024.85 238.957 1079.2M425.742 -300.903C433.8 -237.781 434.732 -73.8175 374 77.0647C298.083 265.668 219.45 542.335 234.646 692.838C249.843 843.341 263.81 1013.85 248.075 1068.2M434.859 -311.903C442.917 -248.781 443.85 -84.8173 383.117 66.0649C307.201 254.668 228.567 531.336 243.764 681.838C258.96 832.341 272.927 1002.85 257.193 1057.2M443.977 -322.903C452.035 -259.781 452.968 -95.8171 392.235 55.0652C316.319 243.668 237.685 520.336 252.881 670.839C268.078 821.341 282.045 991.855 266.31 1046.2M453.095 -333.902C461.153 -270.781 462.085 -106.817 401.353 44.0654C325.436 232.668 246.803 509.336 261.999 659.839C277.196 810.341 291.163 980.855 275.428 1035.2M462.212 -344.902C470.27 -281.781 471.203 -117.817 410.47 33.0656C334.554 221.668 255.92 498.336 271.117 648.839C286.313 799.342 300.28 969.855 284.546 1024.2M471.33 -355.902C479.388 -292.78 480.321 -128.816 419.588 22.0659C343.672 210.669 265.038 487.337 280.234 637.839C295.431 788.342 309.398 958.855 293.663 1013.2M480.447 -366.902C488.505 -303.78 489.438 -139.816 428.705 11.0661C352.789 199.669 274.155 476.337 289.352 626.84C304.549 777.342 318.516 947.855 302.781 1002.2M489.565 -377.902C497.623 -314.78 498.556 -150.816 437.823 0.0663187C361.907 188.669 283.273 465.337 298.47 615.84C313.666 766.342 327.633 936.856 311.899 991.199M498.683 -388.901C506.741 -325.78 507.674 -161.816 446.941 -10.9335C371.025 177.669 292.391 454.337 307.587 604.84C322.784 755.343 336.751 925.856 321.016 980.199M507.8 -399.901C515.858 -336.779 516.791 -172.815 456.058 -21.9332C380.142 166.67 301.508 443.338 316.705 593.84C331.902 744.343 345.868 914.856 330.134 969.199M516.918 -410.901C524.976 -347.779 525.909 -183.815 465.176 -32.933C389.26 155.67 336.929 391.078 373.999 537.553C411.113 684.198 354.986 903.856 339.252 958.2M526.036 -421.901C534.094 -358.779 535.027 -194.815 474.294 -43.9328C398.378 144.67 337.529 358.827 401.353 503.407C462.441 641.791 364.104 892.856 348.369 947.2M535.153 -432.9C543.211 -369.779 544.144 -205.815 483.411 -54.9325C407.495 133.67 380.153 314.642 410.47 486.553C436.741 635.522 373.221 881.857 357.487 936.2" stroke="white" stroke-width="4"/>
</g>
<defs>
<filter id="filter0_b" x="-286.154" y="-726.752" width="1083.2" height="2139.5" filterUnits="userSpaceOnUse" color-interpolation-filters="sRGB">
<feFlood flood-opacity="0" result="BackgroundImageFix"/>
<feGaussianBlur in="BackgroundImage" stdDeviation="128"/>
<feComposite in2="SourceAlpha" operator="in" result="effect1_backgroundBlur"/>
<feBlend mode="normal" in="SourceGraphic" in2="effect1_backgroundBlur" result="shape"/>
</filter>
</defs>
</svg>
