<svg width="622" height="425" viewBox="0 0 622 425" fill="none" xmlns="http://www.w3.org/2000/svg">
<g style="mix-blend-mode:overlay" opacity="0.24" filter="url(#filter0_b)">
<path d="M280.911 -627.157C291.669 -542.89 173.213 -335.927 92.1352 -134.5C-9.21209 117.283 5.5129 498.561 25.8003 699.48C46.0876 900.4 64.7333 1128.03 43.7278 1200.58M294.178 -608.052C304.935 -523.785 209.578 -285.79 128.5 -84.3629C27.1529 167.42 18.7798 517.665 39.0672 718.585C59.3546 919.505 78.0002 1147.14 56.9948 1219.69M307.445 -588.947C318.202 -504.68 227.078 -190.266 146 11.1609C44.6529 262.944 32.0468 536.77 52.3342 737.69C72.6216 938.61 91.2672 1166.24 70.2617 1238.79M320.712 -569.842C331.469 -485.575 241.078 -126.959 160 74.4672C58.6529 326.25 45.3139 555.875 65.6013 756.795C85.8886 957.714 104.534 1185.35 83.5286 1257.9M333.979 -550.738C344.736 -466.471 253.578 -68.2209 172.5 133.206C71.1529 384.989 58.5809 574.98 78.8683 775.899C99.1556 976.819 117.801 1204.45 96.7957 1277M347.246 -531.633C358.003 -447.366 270.078 -18.3229 189 183.104C87.6529 434.887 71.8478 594.084 92.1352 795.004C112.423 995.924 131.068 1223.56 110.063 1296.11M360.513 -512.528C371.27 -428.261 270.078 61.0734 189 262.5C87.6529 514.283 85.1148 613.189 105.402 814.109C125.69 1015.03 144.335 1242.66 123.33 1315.21M373.78 -493.423C384.537 -409.156 385.783 -190.266 304.705 11.1609C203.358 262.944 98.3818 632.294 118.669 833.214C138.957 1034.13 157.602 1261.77 136.597 1334.32M387.047 -474.319C397.804 -390.052 399.05 -171.161 317.972 30.2657C216.624 282.049 111.649 651.399 131.936 852.319C152.223 1053.24 170.869 1280.87 149.864 1353.42M400.314 -455.214C411.071 -370.947 412.317 -152.056 331.239 49.3704C229.891 301.154 124.916 670.504 145.203 871.423C165.49 1072.34 184.136 1299.98 163.131 1372.53M413.581 -436.109C424.338 -351.842 425.584 -132.951 344.506 68.4753C243.158 320.259 138.183 689.608 158.47 890.528C178.757 1091.45 197.403 1319.08 176.398 1391.63M426.848 -417.004C437.605 -332.737 438.851 -113.847 357.773 87.5799C256.425 339.363 151.45 708.713 171.737 909.633C192.024 1110.55 210.67 1338.19 189.664 1410.73M440.115 -397.899C450.872 -313.632 452.118 -94.7419 371.04 106.685C269.692 358.468 164.717 727.818 185.004 928.738C205.291 1129.66 223.937 1357.29 202.931 1429.84M453.382 -378.795C464.139 -294.528 465.385 -75.6371 384.307 125.79C282.959 377.573 177.984 746.922 198.271 947.842C218.558 1148.76 237.204 1376.4 216.198 1448.94M466.649 -359.69C477.406 -275.423 478.651 -56.5323 397.574 144.894C296.226 396.678 191.251 766.027 211.538 966.947C231.825 1167.87 250.471 1395.5 229.465 1468.05M479.916 -340.585C490.673 -256.318 491.918 -37.4276 410.841 163.999C309.493 415.782 204.518 785.132 224.805 986.052C245.092 1186.97 263.738 1414.61 242.732 1487.15M493.183 -321.48C503.94 -237.213 505.185 -18.3229 424.108 183.104C322.76 434.887 217.785 804.237 238.072 1005.16C258.359 1206.08 277.005 1433.71 255.999 1506.26M506.45 -302.376C517.207 -218.109 518.452 0.781843 437.375 202.208C336.027 453.992 231.051 823.342 251.339 1024.26C271.626 1225.18 290.272 1452.82 269.266 1525.36M519.717 -283.271C530.474 -199.004 531.719 19.8867 450.642 221.313C349.294 473.097 244.318 842.446 264.606 1043.37C284.893 1244.29 303.539 1471.92 282.533 1544.47M531.889 -297.955C542.646 -213.689 543.891 5.20208 462.814 206.629C361.466 458.412 256.491 827.762 276.778 1028.68C297.065 1229.6 315.711 1457.24 294.705 1529.78M544.061 -312.64C554.818 -228.373 556.063 -9.48262 474.986 191.944C373.638 443.727 268.663 813.077 288.95 1014C309.237 1214.92 327.883 1442.55 306.877 1515.1M556.233 -327.325C566.99 -243.058 568.235 -24.1672 487.157 177.259C385.81 429.043 280.834 798.393 301.122 999.312C321.409 1200.23 340.055 1427.87 319.049 1500.41M568.405 -342.009C579.162 -257.742 580.407 -38.8518 499.33 162.575C397.982 414.358 293.007 783.708 313.294 984.628C333.581 1185.55 352.227 1413.18 331.221 1485.73M580.577 -356.694C591.334 -272.427 592.579 -53.5364 511.502 147.89C410.154 399.674 305.178 769.023 325.466 969.943C345.753 1170.86 364.399 1398.5 343.393 1471.05M592.749 -371.379C603.506 -287.112 604.751 -68.2209 523.673 133.206C422.326 384.989 317.351 754.339 337.638 955.259C357.925 1156.18 376.571 1383.81 355.565 1456.36M604.921 -386.063C615.678 -301.796 616.923 -82.9056 535.846 118.521C434.498 370.304 329.522 739.654 349.81 940.574C370.097 1141.49 388.743 1369.13 367.737 1441.68M617.093 -400.748C627.85 -316.481 629.095 -97.5902 548.018 103.836C446.67 355.62 341.695 724.969 361.982 925.889C382.269 1126.81 400.915 1354.44 379.909 1426.99M629.265 -415.432C640.022 -331.165 641.267 -112.275 560.19 89.1518C458.842 340.935 353.867 710.285 374.154 911.205C394.441 1112.12 413.087 1339.76 392.081 1412.31M641.437 -430.117C652.194 -345.85 653.439 -126.959 572.361 74.4672C471.014 326.251 366.038 695.6 386.326 896.52C406.613 1097.44 425.259 1325.07 404.253 1397.62M653.609 -444.802C664.366 -360.535 665.611 -141.644 584.534 59.7826C483.186 311.566 378.21 680.916 398.498 881.835C418.785 1082.76 437.431 1310.39 416.425 1382.94M665.781 -459.486C676.538 -375.219 677.783 -156.329 596.705 45.098C495.358 296.881 390.383 666.231 410.67 867.151C430.957 1068.07 449.603 1295.7 428.597 1368.25M677.953 -474.171C688.71 -389.904 689.955 -171.013 608.878 30.4134C507.53 282.197 402.554 651.546 422.842 852.466C443.129 1053.39 461.775 1281.02 440.769 1353.57M690.125 -488.855C700.882 -404.588 702.127 -185.698 621.05 15.7288C519.702 267.512 414.726 636.862 435.014 837.782C455.301 1038.7 473.947 1266.34 452.941 1338.88M702.297 -503.54C713.054 -419.273 714.299 -200.382 633.222 1.04417C531.874 252.827 426.898 622.177 447.186 823.097C467.473 1024.02 486.119 1251.65 465.113 1324.2M714.469 -518.225C725.226 -433.958 726.471 -215.067 645.394 -13.6405C544.046 238.143 439.07 607.493 459.358 808.413C479.645 1009.33 498.291 1236.97 477.285 1309.51M726.641 -532.909C737.398 -448.642 738.643 -229.752 657.566 -28.325C556.218 223.458 451.242 592.808 471.53 793.728C491.817 994.648 510.463 1222.28 489.457 1294.83M738.813 -547.594C749.57 -463.327 750.815 -244.436 669.738 -43.0097C568.39 208.774 498.529 523.042 548.017 718.585C597.563 914.354 522.635 1207.6 501.629 1280.15M750.985 -562.278C761.742 -478.012 762.987 -259.121 681.91 -57.6943C580.562 194.089 499.33 479.986 584.534 673C666.086 857.742 534.807 1192.91 513.801 1265.46M763.157 -576.963C773.914 -492.696 775.159 -273.806 694.082 -72.3789C592.734 179.404 556.233 421 596.705 650.5C631.777 849.373 546.979 1178.23 525.973 1250.78" stroke="white" stroke-width="4"/>
</g>
<defs>
<filter id="filter0_b" x="-797.667" y="-1025.67" width="2314.04" height="2868.5" filterUnits="userSpaceOnUse" color-interpolation-filters="sRGB">
<feFlood flood-opacity="0" result="BackgroundImageFix"/>
<feGaussianBlur in="BackgroundImage" stdDeviation="128"/>
<feComposite in2="SourceAlpha" operator="in" result="effect1_backgroundBlur"/>
<feBlend mode="normal" in="SourceGraphic" in2="effect1_backgroundBlur" result="shape"/>
</filter>
</defs>
</svg>
